<svg xmlns="http://www.w3.org/2000/svg" width="24.082" height="29.396" viewBox="0 0 24.082 29.396">
  <g id="Group_498" data-name="Group 498" transform="translate(-358.781 -602.402)">
    <path id="Path_877" data-name="Path 877" d="M136.472,25.759a2.772,2.772,0,0,1,2.239-2.727v-.588a.757.757,0,1,1,1.515,0v.606a2.984,2.984,0,0,1,2.009,1.736.757.757,0,0,1-1.4.585,1.479,1.479,0,0,0-1.367-.909,1.346,1.346,0,0,0-1.482,1.3c0,.233,0,.936,1.651,1.315h.024c2.424.567,2.8,1.988,2.8,2.785h0a2.773,2.773,0,0,1-2.239,2.727v.606a.757.757,0,0,1-1.515,0v-.606a2.984,2.984,0,0,1-2.009-1.736.757.757,0,1,1,1.4-.585,1.482,1.482,0,0,0,1.37.909,1.346,1.346,0,0,0,1.482-1.3c0-.233,0-.936-1.651-1.315h-.024c-2.442-.582-2.806-2-2.806-2.8Zm5.454-10.4h0a.758.758,0,0,0,1.045-.191l2.609-3.715h0a.76.76,0,0,0-.139-1.021,9.588,9.588,0,0,0-11.947.009.758.758,0,0,0-.136,1.018l2.609,3.709A.757.757,0,0,0,137.2,14.3l-2.188-3.112a8.091,8.091,0,0,1,8.9,0l-2.188,3.118a.758.758,0,0,0,.185,1.054ZM129.266,30.116a17.221,17.221,0,0,1,6.124-13.126.757.757,0,0,1,.488-.179h7.178a.758.758,0,0,1,.488.179,17.222,17.222,0,0,1,6.127,13.126v2.154l.233.112a2.821,2.821,0,0,1-1.212,5.366H130.242a2.821,2.821,0,0,1-1.212-5.366l.233-.112Zm-.3,5.1a1.3,1.3,0,0,0,1.273,1.018h18.453a1.306,1.306,0,0,0,.564-2.482l-.664-.3a.758.758,0,0,1-.427-.7v-2.63h0a15.71,15.71,0,0,0-5.384-11.79H136.16a15.708,15.708,0,0,0-5.378,11.793v2.63a.757.757,0,0,1-.43.682l-.664.3a1.3,1.3,0,0,0-.718,1.482Z" transform="translate(231.356 594.049)" fill="#25e0b1"/>
  </g>
</svg>
