<svg xmlns="http://www.w3.org/2000/svg" width="16.786" height="31.198" viewBox="0 0 16.786 31.198">
  <g id="Group_499" data-name="Group 499" transform="translate(-228.048 -602.352)">
    <path id="Path_876" data-name="Path 876" d="M93.315,149.492a.486.486,0,0,1-.487.486H89.791a.486.486,0,0,1,0-.972h3.037A.486.486,0,0,1,93.315,149.492Zm0-2.379a.486.486,0,0,1-.487.486H89.791a.486.486,0,0,1,0-.972h3.037A.486.486,0,0,1,93.315,147.112Zm0-2.379a.486.486,0,0,1-.487.486H89.791a.486.486,0,0,1,0-.972h3.037A.486.486,0,0,1,93.315,144.734Zm0-2.379a.486.486,0,0,1-.487.486H89.791a.486.486,0,0,1,0-.972h3.037A.486.486,0,0,1,93.315,142.355Zm2.323,5.928v1.427a.486.486,0,1,1-.971,0v-1.427a.486.486,0,1,1,.971,0Zm0-3.064v1.427a.486.486,0,1,1-.971,0v-1.427a.486.486,0,1,1,.971,0Zm0-3.063v1.427a.486.486,0,1,1-.971,0v-1.427a.486.486,0,1,1,.971,0Zm19.073,6.771a3.033,3.033,0,0,1,0-5.987v-1.87a3.038,3.038,0,0,1-2.507-2.507H96.369l-.731.731v1.226a.486.486,0,1,1-.971,0v-1.226l-.733-.732h-5.87a3.038,3.038,0,0,1-2.507,2.507v1.87a3.033,3.033,0,0,1,0,5.987v1.87a3.038,3.038,0,0,1,2.507,2.507h5.871l.733-.732v-1.226a.486.486,0,1,1,.971,0v1.226l.731.732H112.2a3.038,3.038,0,0,1,2.507-2.507v-1.87Zm.484-5.054a.487.487,0,0,0,.487-.486v-2.764a.486.486,0,0,0-.487-.486,2.063,2.063,0,0,1-2.06-2.06.485.485,0,0,0-.484-.486H96.168a.487.487,0,0,0-.344.142l-.673.673-.673-.673a.481.481,0,0,0-.344-.142H87.616a.485.485,0,0,0-.484.486,2.063,2.063,0,0,1-2.06,2.06.486.486,0,0,0-.487.486v2.764a.487.487,0,0,0,.487.486,2.06,2.06,0,0,1,0,4.121.486.486,0,0,0-.487.486v2.765a.486.486,0,0,0,.487.486,2.063,2.063,0,0,1,2.06,2.06.486.486,0,0,0,.484.486h6.518a.482.482,0,0,0,.344-.142l.673-.673.673.673a.486.486,0,0,0,.344.142h16.483a.486.486,0,0,0,.484-.486,2.063,2.063,0,0,1,2.06-2.06.486.486,0,0,0,.487-.486v-2.765a.486.486,0,0,0-.487-.486,2.061,2.061,0,0,1,0-4.121Z" transform="translate(90.508 718.085) rotate(-90)" fill="#25e0b1" stroke="#25e0b1" stroke-width="0.1" fill-rule="evenodd"/>
  </g>
</svg>
